  0
SECTION
  2
HEADER
  9
$ACADVER
  1
AC1009
  9
$DWGCODEPAGE
  3
ansi_1251
  9
$INSBASE
 10
0.0
 20
0.0
 30
0.0
  9
$EXTMIN
 10
1.000000000000000E+20
 20
1.000000000000000E+20
 30
1.000000000000000E+20
  9
$EXTMAX
 10
-1.000000000000000E+20
 20
-1.000000000000000E+20
 30
-1.000000000000000E+20
  9
$LIMMIN
 10
0.0
 20
0.0
  9
$LIMMAX
 10
12.0
 20
9.0
  9
$ORTHOMODE
 70
     0
  9
$REGENMODE
 70
     1
  9
$FILLMODE
 70
     1
  9
$QTEXTMODE
 70
     0
  9
$MIRRTEXT
 70
     1
  9
$DRAGMODE
 70
     2
  9
$LTSCALE
 40
1.0
  9
$OSMODE
 70
    37
  9
$ATTMODE
 70
     1
  9
$TEXTSIZE
 40
0.2
  9
$TRACEWID
 40
0.05
  9
$TEXTSTYLE
  7
STANDARD
  9
$CLAYER
  8
0
  9
$CELTYPE
  6
BYLAYER
  9
$CECOLOR
 62
   256
  9
$DIMSCALE
 40
1.0
  9
$DIMASZ
 40
0.18
  9
$DIMEXO
 40
0.0625
  9
$DIMDLI
 40
0.38
  9
$DIMRND
 40
0.0
  9
$DIMDLE
 40
0.0
  9
$DIMEXE
 40
0.18
  9
$DIMTP
 40
0.0
  9
$DIMTM
 40
0.0
  9
$DIMTXT
 40
0.18
  9
$DIMCEN
 40
0.09
  9
$DIMTSZ
 40
0.0
  9
$DIMTOL
 70
     0
  9
$DIMLIM
 70
     0
  9
$DIMTIH
 70
     1
  9
$DIMTOH
 70
     1
  9
$DIMSE1
 70
     0
  9
$DIMSE2
 70
     0
  9
$DIMTAD
 70
     0
  9
$DIMZIN
 70
     0
  9
$DIMBLK
  1

  9
$DIMASO
 70
     1
  9
$DIMSHO
 70
     1
  9
$DIMPOST
  1

  9
$DIMAPOST
  1

  9
$DIMALT
 70
     0
  9
$DIMALTD
 70
     2
  9
$DIMALTF
 40
25.4
  9
$DIMLFAC
 40
1.0
  9
$DIMTOFL
 70
     0
  9
$DIMTVP
 40
0.0
  9
$DIMTIX
 70
     0
  9
$DIMSOXD
 70
     0
  9
$DIMSAH
 70
     0
  9
$DIMBLK1
  1

  9
$DIMBLK2
  1

  9
$DIMSTYLE
  2
STANDARD
  9
$DIMCLRD
 70
     0
  9
$DIMCLRE
 70
     0
  9
$DIMCLRT
 70
     0
  9
$DIMTFAC
 40
1.0
  9
$DIMGAP
 40
0.09
  9
$LUNITS
 70
     2
  9
$LUPREC
 70
     4
  9
$SKETCHINC
 40
0.1
  9
$FILLETRAD
 40
0.5
  9
$AUNITS
 70
     0
  9
$AUPREC
 70
     0
  9
$MENU
  1
.
  9
$ELEVATION
 40
0.0
  9
$PELEVATION
 40
0.0
  9
$THICKNESS
 40
0.0
  9
$LIMCHECK
 70
     0
  9
$CHAMFERA
 40
0.0
  9
$CHAMFERB
 40
0.0
  9
$SKPOLY
 70
     0
  9
$TDCREATE
 40
2459066.593445104
  9
$TDUPDATE
 40
2459066.593445243
  9
$TDINDWG
 40
0.0000000116
  9
$TDUSRTIMER
 40
0.0000000116
  9
$USRTIMER
 70
     1
  9
$ANGBASE
 50
0.0
  9
$ANGDIR
 70
     0
  9
$PDMODE
 70
     0
  9
$PDSIZE
 40
0.0
  9
$PLINEWID
 40
0.0
  9
$COORDS
 70
     1
  9
$SPLFRAME
 70
     0
  9
$SPLINETYPE
 70
     6
  9
$SPLINESEGS
 70
     8
  9
$ATTDIA
 70
     0
  9
$ATTREQ
 70
     1
  9
$HANDLING
 70
     1
  9
$HANDSEED
  5
181
  9
$SURFTAB1
 70
     6
  9
$SURFTAB2
 70
     6
  9
$SURFTYPE
 70
     6
  9
$SURFU
 70
     6
  9
$SURFV
 70
     6
  9
$UCSNAME
  2

  9
$UCSORG
 10
0.0
 20
0.0
 30
0.0
  9
$UCSXDIR
 10
1.0
 20
0.0
 30
0.0
  9
$UCSYDIR
 10
0.0
 20
1.0
 30
0.0
  9
$PUCSNAME
  2

  9
$PUCSORG
 10
0.0
 20
0.0
 30
0.0
  9
$PUCSXDIR
 10
1.0
 20
0.0
 30
0.0
  9
$PUCSYDIR
 10
0.0
 20
1.0
 30
0.0
  9
$USERI1
 70
     0
  9
$USERI2
 70
     0
  9
$USERI3
 70
     0
  9
$USERI4
 70
     0
  9
$USERI5
 70
     0
  9
$USERR1
 40
0.0
  9
$USERR2
 40
0.0
  9
$USERR3
 40
0.0
  9
$USERR4
 40
0.0
  9
$USERR5
 40
0.0
  9
$WORLDVIEW
 70
     1
  9
$SHADEDGE
 70
     3
  9
$SHADEDIF
 70
    70
  9
$TILEMODE
 70
     1
  9
$MAXACTVP
 70
    64
  9
$PLIMCHECK
 70
     0
  9
$PEXTMIN
 10
1.000000000000000E+20
 20
1.000000000000000E+20
 30
1.000000000000000E+20
  9
$PEXTMAX
 10
-1.000000000000000E+20
 20
-1.000000000000000E+20
 30
-1.000000000000000E+20
  9
$PLIMMIN
 10
0.0
 20
0.0
  9
$PLIMMAX
 10
12.0
 20
9.0
  9
$UNITMODE
 70
     0
  9
$VISRETAIN
 70
     1
  9
$PLINEGEN
 70
     0
  9
$PSLTSCALE
 70
     1
  0
ENDSEC
  0
SECTION
  2
TABLES
  0
TABLE
  2
VPORT
 70
     1
  0
VPORT
  2
*ACTIVE
 70
     0
 10
0.0
 20
0.0
 11
1.0
 21
1.0
 12
0.0
 22
0.0
 13
0.0
 23
0.0
 14
0.5
 24
0.5
 15
0.5
 25
0.5
 16
0.0
 26
0.0
 36
1.0
 17
0.0
 27
0.0
 37
-1000.0
 40
94.73684210526328
 41
1.681034482758621
 42
50.0
 43
170.8686332959176
 44
236.7794501850297
 50
0.0
 51
0.0
 71
     0
 72
   100
 73
     1
 74
     3
 75
     0
 76
     0
 77
     0
 78
     0
  0
ENDTAB
  0
TABLE
  2
LTYPE
 70
     1
  0
LTYPE
  2
CONTINUOUS
 70
     0
  3
Solid line
 72
    65
 73
     0
 40
0.0
  0
ENDTAB
  0
TABLE
  2
LAYER
 70
     3
  0
LAYER
  2
0
 70
     0
 62
     7
  6
CONTINUOUS
  0
LAYER
  2
PROFILEEDGES
 70
     0
 62
     7
  6
CONTINUOUS
  0
LAYER
  2
SECTIONCUTEDGES
 70
     0
 62
     7
  6
CONTINUOUS
  0
ENDTAB
  0
TABLE
  2
STYLE
 70
     1
  0
STYLE
  2
STANDARD
 70
     0
 40
0.0
 41
1.0
 50
0.0
 71
     0
 42
0.2
  3
txt
  4

  0
ENDTAB
  0
TABLE
  2
VIEW
 70
     0
  0
ENDTAB
  0
TABLE
  2
UCS
 70
     0
  0
ENDTAB
  0
TABLE
  2
APPID
 70
     1
  0
APPID
  2
ACAD
 70
     0
  0
ENDTAB
  0
TABLE
  2
DIMSTYLE
 70
     1
  0
DIMSTYLE
  2
STANDARD
 70
     0
  3

  4

  5

  6

  7

 40
1.0
 41
0.18
 42
0.0625
 43
0.38
 44
0.18
 45
0.0
 46
0.0
 47
0.0
 48
0.0
140
0.18
141
0.09
142
0.0
143
25.4
144
1.0
145
0.0
146
1.0
147
0.09
 71
     0
 72
     0
 73
     1
 74
     1
 75
     0
 76
     0
 77
     0
 78
     0
170
     0
171
     2
172
     0
173
     0
174
     0
175
     0
176
     0
177
     0
178
     0
  0
ENDTAB
  0
ENDSEC
  0
SECTION
  2
BLOCKS
  0
BLOCK
  8
0
  2
$MODEL_SPACE
 70
     0
 10
0.0
 20
0.0
 30
0.0
  3
$MODEL_SPACE
  1

  0
ENDBLK
  5
21
  8
0
  0
BLOCK
 67
     1
  8
0
  2
$PAPER_SPACE
 70
     0
 10
0.0
 20
0.0
 30
0.0
  3
$PAPER_SPACE
  1

  0
ENDBLK
  5
1D
 67
     1
  8
0
  0
ENDSEC
  0
SECTION
  2
ENTITIES
  0
LINE
  5
70
  8
0
 10
-2.50000000000004
 20
-45.00000000000006
 30
0.0
 11
-2.50000000000004
 21
14.99999999999993
 31
0.0
  0
LINE
  5
71
  8
0
 10
57.49999999999999
 20
14.99999999999993
 30
0.0
 11
57.49999999999999
 21
45.00000000000004
 31
0.0
  0
LINE
  5
72
  8
0
 10
-2.50000000000004
 20
14.99999999999993
 30
0.0
 11
57.49999999999999
 21
14.99999999999993
 31
0.0
  0
LINE
  5
73
  8
0
 10
57.49999999999999
 20
45.00000000000004
 30
0.0
 11
-57.49999999999999
 21
45.00000000000006
 31
0.0
  0
LINE
  5
74
  8
0
 10
-57.49999999999999
 20
45.00000000000006
 30
0.0
 11
-57.49999999999999
 21
-45.00000000000004
 31
0.0
  0
LINE
  5
75
  8
0
 10
-57.49999999999999
 20
-45.00000000000004
 30
0.0
 11
-2.50000000000004
 21
-45.00000000000006
 31
0.0
  0
LINE
  5
76
  8
0
 10
-20.50001504870386
 20
-35.19622166596537
 30
0.0
 11
-21.0267253612851
 21
-34.85416935987043
 31
0.0
  0
LINE
  5
77
  8
0
 10
-21.0267253612851
 20
-34.85416935987043
 30
0.0
 11
-21.51479609775013
 21
-34.45893463253644
 31
0.0
  0
LINE
  5
78
  8
0
 10
-21.51479609775013
 20
-34.45893463253644
 30
0.0
 11
-21.9588798529749
 21
-34.01484775834428
 31
0.0
  0
LINE
  5
79
  8
0
 10
-21.9588798529749
 20
-34.01484775834428
 30
0.0
 11
-22.35411115240666
 21
-33.52677424601875
 31
0.0
  0
LINE
  5
7A
  8
0
 10
-22.35411115240666
 20
-33.52677424601875
 30
0.0
 11
-22.69615975922136
 21
-33.00006153109683
 31
0.0
  0
LINE
  5
7B
  8
0
 10
-22.69615975922136
 20
-33.00006153109683
 30
0.0
 11
-22.98127811730447
 21
-32.44048038830493
 31
0.0
  0
LINE
  5
7C
  8
0
 10
-22.98127811730447
 20
-32.44048038830493
 30
0.0
 11
-23.20634241025998
 21
-31.85416170574335
 31
0.0
  0
LINE
  5
7D
  8
0
 10
-23.20634241025998
 20
-31.85416170574335
 30
0.0
 11
-23.36888678659654
 21
-31.24752931359334
 31
0.0
  0
LINE
  5
7E
  8
0
 10
-23.36888678659654
 20
-31.24752931359334
 30
0.0
 11
-23.4671303761124
 21
-30.62722960328925
 31
0.0
  0
LINE
  5
7F
  8
0
 10
-23.4671303761124
 20
-30.62722960328925
 30
0.0
 11
-23.49999680148206
 21
-30.00005870826324
 31
0.0
  0
LINE
  5
80
  8
0
 10
-23.49999680148206
 20
-30.00005870826324
 30
0.0
 11
-23.46712597127139
 21
-29.37288804408517
 31
0.0
  0
LINE
  5
81
  8
0
 10
-23.46712597127139
 20
-29.37288804408517
 30
0.0
 11
-23.36887802517486
 21
-28.75258902379568
 31
0.0
  0
LINE
  5
82
  8
0
 10
-23.36887802517486
 20
-28.75258902379568
 30
0.0
 11
-23.20632938824961
 21
-28.14595777326695
 31
0.0
  0
LINE
  5
83
  8
0
 10
-23.20632938824961
 20
-28.14595777326695
 30
0.0
 11
-22.98126097737728
 21
-27.55964067142556
 31
0.0
  0
LINE
  5
84
  8
0
 10
-22.98126097737728
 20
-27.55964067142556
 30
0.0
 11
-22.69613868916598
 21
-27.00006153113399
 31
0.0
  0
LINE
  5
85
  8
0
 10
-22.69613868916598
 20
-27.00006153113399
 30
0.0
 11
-22.35408638307102
 21
-26.47335121855276
 31
0.0
  0
LINE
  5
86
  8
0
 10
-22.35408638307102
 20
-26.47335121855276
 30
0.0
 11
-21.95885165573703
 21
-25.98528048208772
 31
0.0
  0
LINE
  5
87
  8
0
 10
-21.95885165573703
 20
-25.98528048208772
 30
0.0
 11
-21.51476478154487
 21
-25.54119672686295
 31
0.0
  0
LINE
  5
88
  8
0
 10
-21.51476478154487
 20
-25.54119672686295
 30
0.0
 11
-21.02669126921934
 21
-25.1459654274312
 31
0.0
  0
LINE
  5
89
  8
0
 10
-21.02669126921934
 20
-25.1459654274312
 30
0.0
 11
-20.49997855429742
 21
-24.80391682061649
 31
0.0
  0
LINE
  5
8A
  8
0
 10
-20.49997855429742
 20
-24.80391682061649
 30
0.0
 11
-19.94039741150552
 21
-24.51879846253338
 31
0.0
  0
LINE
  5
8B
  8
0
 10
-19.94039741150552
 20
-24.51879846253338
 30
0.0
 11
-19.35407872894395
 21
-24.29373416957787
 31
0.0
  0
LINE
  5
8C
  8
0
 10
-19.35407872894395
 20
-24.29373416957787
 30
0.0
 11
-18.74744633679393
 21
-24.13118979324131
 31
0.0
  0
LINE
  5
8D
  8
0
 10
-18.74744633679393
 20
-24.13118979324131
 30
0.0
 11
-18.12714662648984
 21
-24.03294620372544
 31
0.0
  0
LINE
  5
8E
  8
0
 10
-18.12714662648984
 20
-24.03294620372544
 30
0.0
 11
-17.49997573146383
 21
-24.0000797783558
 31
0.0
  0
LINE
  5
8F
  8
0
 10
-17.49997573146383
 20
-24.0000797783558
 30
0.0
 11
-16.87280506728576
 21
-24.03295060856647
 31
0.0
  0
LINE
  5
90
  8
0
 10
-16.87280506728576
 20
-24.03295060856647
 30
0.0
 11
-16.25250604699626
 21
-24.13119855466299
 31
0.0
  0
LINE
  5
91
  8
0
 10
-16.25250604699626
 20
-24.13119855466299
 30
0.0
 11
-15.64587479646755
 21
-24.29374719158825
 31
0.0
  0
LINE
  5
92
  8
0
 10
-15.64587479646755
 20
-24.29374719158825
 30
0.0
 11
-15.05955769462614
 21
-24.51881560246058
 31
0.0
  0
LINE
  5
93
  8
0
 10
-15.05955769462614
 20
-24.51881560246058
 30
0.0
 11
-14.49997855433457
 21
-24.80393789067188
 31
0.0
  0
LINE
  5
94
  8
0
 10
-14.49997855433457
 20
-24.80393789067188
 30
0.0
 11
-13.97326824175334
 21
-25.14599019676684
 31
0.0
  0
LINE
  5
95
  8
0
 10
-13.97326824175334
 20
-25.14599019676684
 30
0.0
 11
-13.4851975052883
 21
-25.54122492410083
 31
0.0
  0
LINE
  5
96
  8
0
 10
-13.4851975052883
 20
-25.54122492410083
 30
0.0
 11
-13.04111375006353
 21
-25.98531179829299
 31
0.0
  0
LINE
  5
97
  8
0
 10
-13.04111375006353
 20
-25.98531179829299
 30
0.0
 11
-12.64588245063177
 21
-26.47338531061853
 31
0.0
  0
LINE
  5
98
  8
0
 10
-12.64588245063177
 20
-26.47338531061853
 30
0.0
 11
-12.30383384381707
 21
-27.00009802554045
 31
0.0
  0
LINE
  5
99
  8
0
 10
-12.30383384381707
 20
-27.00009802554045
 30
0.0
 11
-12.01871548573396
 21
-27.55967916833235
 31
0.0
  0
LINE
  5
9A
  8
0
 10
-12.01871548573396
 20
-27.55967916833235
 30
0.0
 11
-11.79365119277846
 21
-28.14599785089392
 31
0.0
  0
LINE
  5
9B
  8
0
 10
-11.79365119277846
 20
-28.14599785089392
 30
0.0
 11
-11.63110681644189
 21
-28.75263024304394
 31
0.0
  0
LINE
  5
9C
  8
0
 10
-11.63110681644189
 20
-28.75263024304394
 30
0.0
 11
-11.53286322692603
 21
-29.37292995334802
 31
0.0
  0
LINE
  5
9D
  8
0
 10
-11.53286322692603
 20
-29.37292995334802
 30
0.0
 11
-11.49999680155638
 21
-30.00010084837403
 31
0.0
  0
LINE
  5
9E
  8
0
 10
-11.49999680155638
 20
-30.00010084837403
 30
0.0
 11
-11.53286763176705
 21
-30.62727151255209
 31
0.0
  0
LINE
  5
9F
  8
0
 10
-11.53286763176705
 20
-30.62727151255209
 30
0.0
 11
-11.63111557786358
 21
-31.24757053284159
 31
0.0
  0
LINE
  5
A0
  8
0
 10
-11.63111557786358
 20
-31.24757053284159
 30
0.0
 11
-11.79366421478884
 21
-31.85420178337031
 31
0.0
  0
LINE
  5
A1
  8
0
 10
-11.79366421478884
 20
-31.85420178337031
 30
0.0
 11
-12.01873262566116
 21
-32.44051888521171
 31
0.0
  0
LINE
  5
A2
  8
0
 10
-12.01873262566116
 20
-32.44051888521171
 30
0.0
 11
-12.30385491387247
 21
-33.00009802550328
 31
0.0
  0
LINE
  5
A3
  8
0
 10
-12.30385491387247
 20
-33.00009802550328
 30
0.0
 11
-12.64590721996742
 21
-33.52680833808451
 31
0.0
  0
LINE
  5
A4
  8
0
 10
-12.64590721996742
 20
-33.52680833808451
 30
0.0
 11
-13.0411419473014
 21
-34.01487907454954
 31
0.0
  0
LINE
  5
A5
  8
0
 10
-13.0411419473014
 20
-34.01487907454954
 30
0.0
 11
-13.48522882149356
 21
-34.45896282977431
 31
0.0
  0
LINE
  5
A6
  8
0
 10
-13.48522882149356
 20
-34.45896282977431
 30
0.0
 11
-13.9733023338191
 21
-34.85419412920607
 31
0.0
  0
LINE
  5
A7
  8
0
 10
-13.9733023338191
 20
-34.85419412920607
 30
0.0
 11
-14.50001504874102
 21
-35.19624273602076
 31
0.0
  0
LINE
  5
A8
  8
0
 10
-14.50001504874102
 20
-35.19624273602076
 30
0.0
 11
-15.05959619153292
 21
-35.48136109410388
 31
0.0
  0
LINE
  5
A9
  8
0
 10
-15.05959619153292
 20
-35.48136109410388
 30
0.0
 11
-15.64591487409448
 21
-35.70642538705939
 31
0.0
  0
LINE
  5
AA
  8
0
 10
-15.64591487409448
 20
-35.70642538705939
 30
0.0
 11
-16.25254726624449
 21
-35.86896976339595
 31
0.0
  0
LINE
  5
AB
  8
0
 10
-16.25254726624449
 20
-35.86896976339595
 30
0.0
 11
-16.87284697654859
 21
-35.96721335291182
 31
0.0
  0
LINE
  5
AC
  8
0
 10
-16.87284697654859
 20
-35.96721335291182
 30
0.0
 11
-17.50001787157459
 21
-36.00007977828147
 31
0.0
  0
LINE
  5
AD
  8
0
 10
-17.50001787157459
 20
-36.00007977828147
 30
0.0
 11
-18.12718853575265
 21
-35.9672089480708
 31
0.0
  0
LINE
  5
AE
  8
0
 10
-18.12718853575265
 20
-35.9672089480708
 30
0.0
 11
-18.74748755604215
 21
-35.86896100197428
 31
0.0
  0
LINE
  5
AF
  8
0
 10
-18.74748755604215
 20
-35.86896100197428
 30
0.0
 11
-19.35411880657087
 21
-35.70641236504903
 31
0.0
  0
LINE
  5
B0
  8
0
 10
-19.35411880657087
 20
-35.70641236504903
 30
0.0
 11
-19.94043590841227
 21
-35.4813439541767
 31
0.0
  0
LINE
  5
B1
  8
0
 10
-19.94043590841227
 20
-35.4813439541767
 30
0.0
 11
-20.50001504870386
 21
-35.19622166596537
 31
0.0
  0
LINE
  5
B2
  8
0
 10
-19.98450008116712
 20
5.461346165135792
 30
0.0
 11
-19.4000151738224
 21
5.691130687178794
 31
0.0
  0
LINE
  5
B3
  8
0
 10
-19.4000151738224
 20
5.691130687178794
 30
0.0
 11
-18.79471311298392
 21
5.858561116399412
 31
0.0
  0
LINE
  5
B4
  8
0
 10
-18.79471311298392
 20
5.858561116399412
 30
0.0
 11
-18.17522571469785
 21
5.961803049978025
 31
0.0
  0
LINE
  5
B5
  8
0
 10
-18.17522571469785
 20
5.961803049978025
 30
0.0
 11
-17.54834021253587
 21
5.999725347685599
 31
0.0
  0
LINE
  5
B6
  8
0
 10
-17.54834021253587
 20
5.999725347685599
 30
0.0
 11
-16.92092489524388
 21
5.971912524892692
 31
0.0
  0
LINE
  5
B7
  8
0
 10
-16.92092489524388
 20
5.971912524892692
 30
0.0
 11
-16.29985385633326
 21
5.878669304706033
 31
0.0
  0
LINE
  5
B8
  8
0
 10
-16.29985385633326
 20
5.878669304706033
 30
0.0
 11
-15.69193168007375
 21
5.721017279358389
 31
0.0
  0
LINE
  5
B9
  8
0
 10
-15.69193168007375
 20
5.721017279358389
 30
0.0
 11
-15.10381888904437
 21
5.50068371743026
 31
0.0
  0
LINE
  5
BA
  8
0
 10
-15.10381888904437
 20
5.50068371743026
 30
0.0
 11
-14.54195897005414
 21
5.220082639533902
 31
0.0
  0
LINE
  5
BB
  8
0
 10
-14.54195897005414
 20
5.220082639533902
 30
0.0
 11
-14.01250777795227
 21
4.882288369798299
 31
0.0
  0
LINE
  5
BC
  8
0
 10
-14.01250777795227
 20
4.882288369798299
 30
0.0
 11
-13.5212660907942
 21
4.491001852930673
 31
0.0
  0
LINE
  5
BD
  8
0
 10
-13.5212660907942
 20
4.491001852930673
 30
0.0
 11
-13.07361605530338
 21
4.050510105891785
 31
0.0
  0
LINE
  5
BE
  8
0
 10
-13.07361605530338
 20
4.050510105891785
 30
0.0
 11
-12.67446221894543
 21
3.565639248441027
 31
0.0
  0
LINE
  5
BF
  8
0
 10
-12.67446221894543
 20
3.565639248441027
 30
0.0
 11
-12.3281777946798
 21
3.041701627158369
 31
0.0
  0
LINE
  5
C0
  8
0
 10
-12.3281777946798
 20
3.041701627158369
 30
0.0
 11
-12.03855674712342
 21
2.484437612263589
 31
0.0
  0
LINE
  5
C1
  8
0
 10
-12.03855674712342
 20
2.484437612263589
 30
0.0
 11
-11.80877222508042
 21
1.899952704918858
 31
0.0
  0
LINE
  5
C2
  8
0
 10
-11.80877222508042
 20
1.899952704918858
 30
0.0
 11
-11.64134179585981
 21
1.294650644080387
 31
0.0
  0
LINE
  5
C3
  8
0
 10
-11.64134179585981
 20
1.294650644080387
 30
0.0
 11
-11.53809986228118
 21
0.6751632457943074
 31
0.0
  0
LINE
  5
C4
  8
0
 10
-11.53809986228118
 20
0.6751632457943074
 30
0.0
 11
-11.50017756457361
 21
0.0482777436323242
 31
0.0
  0
LINE
  5
C5
  8
0
 10
-11.50017756457361
 20
0.0482777436323242
 30
0.0
 11
-11.52799038736651
 21
-0.5791375736596546
 31
0.0
  0
LINE
  5
C6
  8
0
 10
-11.52799038736651
 20
-0.5791375736596546
 30
0.0
 11
-11.62123360755317
 21
-1.200208612570278
 31
0.0
  0
LINE
  5
C7
  8
0
 10
-11.62123360755317
 20
-1.200208612570278
 30
0.0
 11
-11.77888563290082
 21
-1.808130788829782
 31
0.0
  0
LINE
  5
C8
  8
0
 10
-11.77888563290082
 20
-1.808130788829782
 30
0.0
 11
-11.99921919482895
 21
-2.396243579859166
 31
0.0
  0
LINE
  5
C9
  8
0
 10
-11.99921919482895
 20
-2.396243579859166
 30
0.0
 11
-12.2798202727253
 21
-2.958103498849392
 31
0.0
  0
LINE
  5
CA
  8
0
 10
-12.2798202727253
 20
-2.958103498849392
 30
0.0
 11
-12.61761454246091
 21
-3.487554690951269
 31
0.0
  0
LINE
  5
CB
  8
0
 10
-12.61761454246091
 20
-3.487554690951269
 30
0.0
 11
-13.00890105932854
 21
-3.978796378109337
 31
0.0
  0
LINE
  5
CC
  8
0
 10
-13.00890105932854
 20
-3.978796378109337
 30
0.0
 11
-13.44939280636742
 21
-4.426446413600163
 31
0.0
  0
LINE
  5
CD
  8
0
 10
-13.44939280636742
 20
-4.426446413600163
 30
0.0
 11
-13.93426366381819
 21
-4.825600249958113
 31
0.0
  0
LINE
  5
CE
  8
0
 10
-13.93426366381819
 20
-4.825600249958113
 30
0.0
 11
-14.45820128510084
 21
-5.171884674223739
 31
0.0
  0
LINE
  5
CF
  8
0
 10
-14.45820128510084
 20
-5.171884674223739
 30
0.0
 11
-15.01546529999563
 21
-5.461505721780115
 31
0.0
  0
LINE
  5
D0
  8
0
 10
-15.01546529999563
 20
-5.461505721780115
 30
0.0
 11
-15.59995020734035
 21
-5.691290243823117
 31
0.0
  0
LINE
  5
D1
  8
0
 10
-15.59995020734035
 20
-5.691290243823117
 30
0.0
 11
-16.20525226817884
 21
-5.858720673043734
 31
0.0
  0
LINE
  5
D2
  8
0
 10
-16.20525226817884
 20
-5.858720673043734
 30
0.0
 11
-16.82473966646491
 21
-5.961962606622354
 31
0.0
  0
LINE
  5
D3
  8
0
 10
-16.82473966646491
 20
-5.961962606622354
 30
0.0
 11
-17.45162516862689
 21
-5.999884904329927
 31
0.0
  0
LINE
  5
D4
  8
0
 10
-17.45162516862689
 20
-5.999884904329927
 30
0.0
 11
-18.07904048591887
 21
-5.97207208153702
 31
0.0
  0
LINE
  5
D5
  8
0
 10
-18.07904048591887
 20
-5.97207208153702
 30
0.0
 11
-18.70011152482951
 21
-5.878828861350356
 31
0.0
  0
LINE
  5
D6
  8
0
 10
-18.70011152482951
 20
-5.878828861350356
 30
0.0
 11
-19.30803370108901
 21
-5.721176836002706
 31
0.0
  0
LINE
  5
D7
  8
0
 10
-19.30803370108901
 20
-5.721176836002706
 30
0.0
 11
-19.89614649211839
 21
-5.500843274074577
 31
0.0
  0
LINE
  5
D8
  8
0
 10
-19.89614649211839
 20
-5.500843274074577
 30
0.0
 11
-20.45800641110862
 21
-5.220242196178218
 31
0.0
  0
LINE
  5
D9
  8
0
 10
-20.45800641110862
 20
-5.220242196178218
 30
0.0
 11
-20.98745760321049
 21
-4.882447926442616
 31
0.0
  0
LINE
  5
DA
  8
0
 10
-20.98745760321049
 20
-4.882447926442616
 30
0.0
 11
-21.47869929036855
 21
-4.491161409574995
 31
0.0
  0
LINE
  5
DB
  8
0
 10
-21.47869929036855
 20
-4.491161409574995
 30
0.0
 11
-21.92634932585938
 21
-4.050669662536102
 31
0.0
  0
LINE
  5
DC
  8
0
 10
-21.92634932585938
 20
-4.050669662536102
 30
0.0
 11
-22.32550316221733
 21
-3.565798805085344
 31
0.0
  0
LINE
  5
DD
  8
0
 10
-22.32550316221733
 20
-3.565798805085344
 30
0.0
 11
-22.67178758648295
 21
-3.041861183802691
 31
0.0
  0
LINE
  5
DE
  8
0
 10
-22.67178758648295
 20
-3.041861183802691
 30
0.0
 11
-22.96140863403933
 21
-2.484597168907912
 31
0.0
  0
LINE
  5
DF
  8
0
 10
-22.96140863403933
 20
-2.484597168907912
 30
0.0
 11
-23.19119315608233
 21
-1.900112261563186
 31
0.0
  0
LINE
  5
E0
  8
0
 10
-23.19119315608233
 20
-1.900112261563186
 30
0.0
 11
-23.35862358530294
 21
-1.294810200724709
 31
0.0
  0
LINE
  5
E1
  8
0
 10
-23.35862358530294
 20
-1.294810200724709
 30
0.0
 11
-23.46186551888156
 21
-0.6753228024386356
 31
0.0
  0
LINE
  5
E2
  8
0
 10
-23.46186551888156
 20
-0.6753228024386356
 30
0.0
 11
-23.49978781658914
 21
-0.0484373002766581
 31
0.0
  0
LINE
  5
E3
  8
0
 10
-23.49978781658914
 20
-0.0484373002766581
 30
0.0
 11
-23.47197499379623
 21
0.5789780170153264
 31
0.0
  0
LINE
  5
E4
  8
0
 10
-23.47197499379623
 20
0.5789780170153264
 30
0.0
 11
-23.37873177360957
 21
1.20004905592595
 31
0.0
  0
LINE
  5
E5
  8
0
 10
-23.37873177360957
 20
1.20004905592595
 30
0.0
 11
-23.22107974826192
 21
1.807971232185448
 31
0.0
  0
LINE
  5
E6
  8
0
 10
-23.22107974826192
 20
1.807971232185448
 30
0.0
 11
-23.0007461863338
 21
2.396084023214831
 31
0.0
  0
LINE
  5
E7
  8
0
 10
-23.0007461863338
 20
2.396084023214831
 30
0.0
 11
-22.72014510843745
 21
2.957943942205064
 31
0.0
  0
LINE
  5
E8
  8
0
 10
-22.72014510843745
 20
2.957943942205064
 30
0.0
 11
-22.38235083870185
 21
3.487395134306936
 31
0.0
  0
LINE
  5
E9
  8
0
 10
-22.38235083870185
 20
3.487395134306936
 30
0.0
 11
-21.99106432183422
 21
3.978636821465003
 31
0.0
  0
LINE
  5
EA
  8
0
 10
-21.99106432183422
 20
3.978636821465003
 30
0.0
 11
-21.55057257479534
 21
4.426286856955824
 31
0.0
  0
LINE
  5
EB
  8
0
 10
-21.55057257479534
 20
4.426286856955824
 30
0.0
 11
-21.06570171734458
 21
4.825440693313774
 31
0.0
  0
LINE
  5
EC
  8
0
 10
-21.06570171734458
 20
4.825440693313774
 30
0.0
 11
-20.54176409606193
 21
5.171725117579405
 31
0.0
  0
LINE
  5
ED
  8
0
 10
-20.54176409606193
 20
5.171725117579405
 30
0.0
 11
-19.98450008116712
 21
5.461346165135792
 31
0.0
  0
LINE
  5
EE
  8
0
 10
-12.34183261439486
 20
26.93501673804115
 30
0.0
 11
-12.69045907412499
 21
26.41263457423756
 31
0.0
  0
LINE
  5
EF
  8
0
 10
-12.69045907412499
 20
26.41263457423756
 30
0.0
 11
-13.09177952645217
 21
25.92955546267508
 31
0.0
  0
LINE
  5
F0
  8
0
 10
-13.09177952645217
 20
25.92955546267508
 30
0.0
 11
-13.54139702051897
 21
25.49107211919078
 31
0.0
  0
LINE
  5
F1
  8
0
 10
-13.54139702051897
 20
25.49107211919078
 30
0.0
 11
-14.0343854529719
 21
25.10198865905442
 31
0.0
  0
LINE
  5
F2
  8
0
 10
-14.0343854529719
 20
25.10198865905442
 30
0.0
 11
-14.56534353938053
 21
24.76656796207617
 31
0.0
  0
LINE
  5
F3
  8
0
 10
-14.56534353938053
 20
24.76656796207617
 30
0.0
 11
-15.12845399184006
 21
24.48848496760346
 31
0.0
  0
LINE
  5
F4
  8
0
 10
-15.12845399184006
 20
24.48848496760346
 30
0.0
 11
-15.71754725439489
 21
24.27078641111632
 31
0.0
  0
LINE
  5
F5
  8
0
 10
-15.71754725439489
 20
24.27078641111632
 30
0.0
 11
-16.3261690979848
 21
24.11585744355599
 31
0.0
  0
LINE
  5
F6
  8
0
 10
-16.3261690979848
 20
24.11585744355599
 30
0.0
 11
-16.94765133432908
 21
24.02539549911199
 31
0.0
  0
LINE
  5
F7
  8
0
 10
-16.94765133432908
 20
24.02539549911199
 30
0.0
 11
-17.57518487399285
 21
24.00039169777808
 31
0.0
  0
LINE
  5
F8
  8
0
 10
-17.57518487399285
 20
24.00039169777808
 30
0.0
 11
-18.20189432819571
 21
24.04111998643403
 31
0.0
  0
LINE
  5
F9
  8
0
 10
-18.20189432819571
 20
24.04111998643403
 30
0.0
 11
-18.82091333701002
 21
24.14713413742637
 31
0.0
  0
LINE
  5
FA
  8
0
 10
-18.82091333701002
 20
24.14713413742637
 30
0.0
 11
-19.42545979863716
 21
24.31727263753198
 31
0.0
  0
LINE
  5
FB
  8
0
 10
-19.42545979863716
 20
24.31727263753198
 30
0.0
 11
-20.00891017553407
 21
24.5496714137399
 31
0.0
  0
LINE
  5
FC
  8
0
 10
-20.00891017553407
 20
24.5496714137399
 30
0.0
 11
-20.56487206327663
 21
24.84178425642543
 31
0.0
  0
LINE
  5
FD
  8
0
 10
-20.56487206327663
 20
24.84178425642543
 30
0.0
 11
-21.0872542270802
 21
25.19041071615557
 31
0.0
  0
LINE
  5
FE
  8
0
 10
-21.0872542270802
 20
25.19041071615557
 30
0.0
 11
-21.57033333864268
 21
25.59173116848275
 31
0.0
  0
LINE
  5
FF
  8
0
 10
-21.57033333864268
 20
25.59173116848275
 30
0.0
 11
-22.00881668212699
 21
26.04134866254955
 31
0.0
  0
LINE
  5
100
  8
0
 10
-22.00881668212699
 20
26.04134866254955
 30
0.0
 11
-22.39790014226335
 21
26.53433709500248
 31
0.0
  0
LINE
  5
101
  8
0
 10
-22.39790014226335
 20
26.53433709500248
 30
0.0
 11
-22.73332083924159
 21
27.06529518141111
 31
0.0
  0
LINE
  5
102
  8
0
 10
-22.73332083924159
 20
27.06529518141111
 30
0.0
 11
-23.0114038337143
 21
27.62840563387064
 31
0.0
  0
LINE
  5
103
  8
0
 10
-23.0114038337143
 20
27.62840563387064
 30
0.0
 11
-23.22910239020145
 21
28.21749889642546
 31
0.0
  0
LINE
  5
104
  8
0
 10
-23.22910239020145
 20
28.21749889642546
 30
0.0
 11
-23.38403135776179
 21
28.82612074001538
 31
0.0
  0
LINE
  5
105
  8
0
 10
-23.38403135776179
 20
28.82612074001538
 30
0.0
 11
-23.47449330220577
 21
29.44760297635967
 31
0.0
  0
LINE
  5
106
  8
0
 10
-23.47449330220577
 20
29.44760297635967
 30
0.0
 11
-23.49949710353968
 21
30.07513651602344
 31
0.0
  0
LINE
  5
107
  8
0
 10
-23.49949710353968
 20
30.07513651602344
 30
0.0
 11
-23.45876881488374
 21
30.70184597022629
 31
0.0
  0
LINE
  5
108
  8
0
 10
-23.45876881488374
 20
30.70184597022629
 30
0.0
 11
-23.35275466389139
 21
31.32086497904061
 31
0.0
  0
LINE
  5
109
  8
0
 10
-23.35275466389139
 20
31.32086497904061
 30
0.0
 11
-23.18261616378578
 21
31.92541144066775
 31
0.0
  0
LINE
  5
10A
  8
0
 10
-23.18261616378578
 20
31.92541144066775
 30
0.0
 11
-22.95021738757787
 21
32.50886181756466
 31
0.0
  0
LINE
  5
10B
  8
0
 10
-22.95021738757787
 20
32.50886181756466
 30
0.0
 11
-22.65810454489234
 21
33.06482370530721
 31
0.0
  0
LINE
  5
10C
  8
0
 10
-22.65810454489234
 20
33.06482370530721
 30
0.0
 11
-22.30947808516219
 21
33.5872058691108
 31
0.0
  0
LINE
  5
10D
  8
0
 10
-22.30947808516219
 20
33.5872058691108
 30
0.0
 11
-21.90815763283501
 21
34.07028498067328
 31
0.0
  0
LINE
  5
10E
  8
0
 10
-21.90815763283501
 20
34.07028498067328
 30
0.0
 11
-21.45854013876821
 21
34.50876832415758
 31
0.0
  0
LINE
  5
10F
  8
0
 10
-21.45854013876821
 20
34.50876832415758
 30
0.0
 11
-20.96555170631528
 21
34.89785178429394
 31
0.0
  0
LINE
  5
110
  8
0
 10
-20.96555170631528
 20
34.89785178429394
 30
0.0
 11
-20.43459361990665
 21
35.23327248127217
 31
0.0
  0
LINE
  5
111
  8
0
 10
-20.43459361990665
 20
35.23327248127217
 30
0.0
 11
-19.87148316744712
 21
35.5113554757449
 31
0.0
  0
LINE
  5
112
  8
0
 10
-19.87148316744712
 20
35.5113554757449
 30
0.0
 11
-19.28238990489228
 21
35.72905403223203
 31
0.0
  0
LINE
  5
113
  8
0
 10
-19.28238990489228
 20
35.72905403223203
 30
0.0
 11
-18.67376806130239
 21
35.88398299979237
 31
0.0
  0
LINE
  5
114
  8
0
 10
-18.67376806130239
 20
35.88398299979237
 30
0.0
 11
-18.0522858249581
 21
35.97444494423635
 31
0.0
  0
LINE
  5
115
  8
0
 10
-18.0522858249581
 20
35.97444494423635
 30
0.0
 11
-17.42475228529433
 21
35.99944874557026
 31
0.0
  0
LINE
  5
116
  8
0
 10
-17.42475228529433
 20
35.99944874557026
 30
0.0
 11
-16.79804283109148
 21
35.95872045691432
 31
0.0
  0
LINE
  5
117
  8
0
 10
-16.79804283109148
 20
35.95872045691432
 30
0.0
 11
-16.17902382227716
 21
35.85270630592196
 31
0.0
  0
LINE
  5
118
  8
0
 10
-16.17902382227716
 20
35.85270630592196
 30
0.0
 11
-15.57447736065002
 21
35.68256780581637
 31
0.0
  0
LINE
  5
119
  8
0
 10
-15.57447736065002
 20
35.68256780581637
 30
0.0
 11
-14.99102698375311
 21
35.45016902960845
 31
0.0
  0
LINE
  5
11A
  8
0
 10
-14.99102698375311
 20
35.45016902960845
 30
0.0
 11
-14.43506509601056
 21
35.15805618692291
 31
0.0
  0
LINE
  5
11B
  8
0
 10
-14.43506509601056
 20
35.15805618692291
 30
0.0
 11
-13.91268293220699
 21
34.80942972719278
 31
0.0
  0
LINE
  5
11C
  8
0
 10
-13.91268293220699
 20
34.80942972719278
 30
0.0
 11
-13.42960382064451
 21
34.40810927486559
 31
0.0
  0
LINE
  5
11D
  8
0
 10
-13.42960382064451
 20
34.40810927486559
 30
0.0
 11
-12.9911204771602
 21
33.9584917807988
 31
0.0
  0
LINE
  5
11E
  8
0
 10
-12.9911204771602
 20
33.9584917807988
 30
0.0
 11
-12.60203701702384
 21
33.46550334834587
 31
0.0
  0
LINE
  5
11F
  8
0
 10
-12.60203701702384
 20
33.46550334834587
 30
0.0
 11
-12.2666163200456
 21
32.93454526193724
 31
0.0
  0
LINE
  5
120
  8
0
 10
-12.2666163200456
 20
32.93454526193724
 30
0.0
 11
-11.98853332557289
 21
32.37143480947771
 31
0.0
  0
LINE
  5
121
  8
0
 10
-11.98853332557289
 20
32.37143480947771
 30
0.0
 11
-11.77083476908575
 21
31.78234154692288
 31
0.0
  0
LINE
  5
122
  8
0
 10
-11.77083476908575
 20
31.78234154692288
 30
0.0
 11
-11.61590580152541
 21
31.173719703333
 31
0.0
  0
LINE
  5
123
  8
0
 10
-11.61590580152541
 20
31.173719703333
 30
0.0
 11
-11.52544385708142
 21
30.5522374669887
 31
0.0
  0
LINE
  5
124
  8
0
 10
-11.52544385708142
 20
30.5522374669887
 30
0.0
 11
-11.5004400557475
 21
29.92470392732494
 31
0.0
  0
LINE
  5
125
  8
0
 10
-11.5004400557475
 20
29.92470392732494
 30
0.0
 11
-11.54116834440344
 21
29.29799447312208
 31
0.0
  0
LINE
  5
126
  8
0
 10
-11.54116834440344
 20
29.29799447312208
 30
0.0
 11
-11.64718249539579
 21
28.67897546430777
 31
0.0
  0
LINE
  5
127
  8
0
 10
-11.64718249539579
 20
28.67897546430777
 30
0.0
 11
-11.81732099550139
 21
28.07442900268062
 31
0.0
  0
LINE
  5
128
  8
0
 10
-11.81732099550139
 20
28.07442900268062
 30
0.0
 11
-12.04971977170931
 21
27.49097862578371
 31
0.0
  0
LINE
  5
129
  8
0
 10
-12.04971977170931
 20
27.49097862578371
 30
0.0
 11
-12.34183261439486
 21
26.93501673804115
 31
0.0
  0
LINE
  5
12A
  8
0
 10
19.26776695296605
 20
28.23215326870787
 30
0.0
 11
18.96946313073088
 21
27.97737773573686
 31
0.0
  0
LINE
  5
12B
  8
0
 10
18.96946313073088
 20
27.97737773573686
 30
0.0
 11
18.63497624934857
 21
27.7724039112033
 31
0.0
  0
LINE
  5
12C
  8
0
 10
18.63497624934857
 20
27.7724039112033
 30
0.0
 11
18.27254248593707
 21
27.62227893093634
 31
0.0
  0
LINE
  5
12D
  8
0
 10
18.27254248593707
 20
27.62227893093634
 30
0.0
 11
17.89108616260027
 21
27.53069937018637
 31
0.0
  0
LINE
  5
12E
  8
0
 10
17.89108616260027
 20
27.53069937018637
 30
0.0
 11
17.4999999999997
 21
27.49992022167422
 31
0.0
  0
LINE
  5
12F
  8
0
 10
17.4999999999997
 20
27.49992022167422
 30
0.0
 11
17.10891383739912
 21
27.53069937018637
 31
0.0
  0
LINE
  5
130
  8
0
 10
17.10891383739912
 20
27.53069937018637
 30
0.0
 11
16.72745751406233
 21
27.62227893093634
 31
0.0
  0
LINE
  5
131
  8
0
 10
16.72745751406233
 20
27.62227893093634
 30
0.0
 11
16.36502375065083
 21
27.7724039112033
 31
0.0
  0
LINE
  5
132
  8
0
 10
16.36502375065083
 20
27.7724039112033
 30
0.0
 11
16.03053686926852
 21
27.97737773573686
 31
0.0
  0
LINE
  5
133
  8
0
 10
16.03053686926852
 20
27.97737773573686
 30
0.0
 11
15.73223304703333
 21
28.23215326870786
 31
0.0
  0
LINE
  5
134
  8
0
 10
15.73223304703333
 20
28.23215326870786
 30
0.0
 11
15.47745751406234
 21
28.53045709094304
 31
0.0
  0
LINE
  5
135
  8
0
 10
15.47745751406234
 20
28.53045709094304
 30
0.0
 11
15.27248368952878
 21
28.86494397232535
 31
0.0
  0
LINE
  5
136
  8
0
 10
15.27248368952878
 20
28.86494397232535
 30
0.0
 11
15.12235870926181
 21
29.22737773573685
 31
0.0
  0
LINE
  5
137
  8
0
 10
15.12235870926181
 20
29.22737773573685
 30
0.0
 11
15.03077914851185
 21
29.60883405907364
 31
0.0
  0
LINE
  5
138
  8
0
 10
15.03077914851185
 20
29.60883405907364
 30
0.0
 11
14.9999999999997
 21
29.99992022167422
 31
0.0
  0
LINE
  5
139
  8
0
 10
14.9999999999997
 20
29.99992022167422
 30
0.0
 11
15.03077914851185
 21
30.3910063842748
 31
0.0
  0
LINE
  5
13A
  8
0
 10
15.03077914851185
 20
30.3910063842748
 30
0.0
 11
15.12235870926181
 21
30.77246270761159
 31
0.0
  0
LINE
  5
13B
  8
0
 10
15.12235870926181
 20
30.77246270761159
 30
0.0
 11
15.27248368952878
 21
31.13489647102309
 31
0.0
  0
LINE
  5
13C
  8
0
 10
15.27248368952878
 20
31.13489647102309
 30
0.0
 11
15.47745751406234
 21
31.4693833524054
 31
0.0
  0
LINE
  5
13D
  8
0
 10
15.47745751406234
 20
31.4693833524054
 30
0.0
 11
15.73223304703333
 21
31.76768717464058
 31
0.0
  0
LINE
  5
13E
  8
0
 10
15.73223304703333
 20
31.76768717464058
 30
0.0
 11
16.03053686926852
 21
32.02246270761157
 31
0.0
  0
LINE
  5
13F
  8
0
 10
16.03053686926852
 20
32.02246270761157
 30
0.0
 11
16.36502375065083
 21
32.22743653214514
 31
0.0
  0
LINE
  5
140
  8
0
 10
16.36502375065083
 20
32.22743653214514
 30
0.0
 11
16.72745751406233
 21
32.3775615124121
 31
0.0
  0
LINE
  5
141
  8
0
 10
16.72745751406233
 20
32.3775615124121
 30
0.0
 11
17.10891383739912
 21
32.46914107316206
 31
0.0
  0
LINE
  5
142
  8
0
 10
17.10891383739912
 20
32.46914107316206
 30
0.0
 11
17.4999999999997
 21
32.49992022167422
 31
0.0
  0
LINE
  5
143
  8
0
 10
17.4999999999997
 20
32.49992022167422
 30
0.0
 11
17.89108616260027
 21
32.46914107316206
 31
0.0
  0
LINE
  5
144
  8
0
 10
17.89108616260027
 20
32.46914107316206
 30
0.0
 11
18.27254248593707
 21
32.3775615124121
 31
0.0
  0
LINE
  5
145
  8
0
 10
18.27254248593707
 20
32.3775615124121
 30
0.0
 11
18.63497624934857
 21
32.22743653214514
 31
0.0
  0
LINE
  5
146
  8
0
 10
18.63497624934857
 20
32.22743653214514
 30
0.0
 11
18.96946313073088
 21
32.02246270761157
 31
0.0
  0
LINE
  5
147
  8
0
 10
18.96946313073088
 20
32.02246270761157
 30
0.0
 11
19.26776695296606
 21
31.76768717464058
 31
0.0
  0
LINE
  5
148
  8
0
 10
19.26776695296606
 20
31.76768717464058
 30
0.0
 11
19.52254248593706
 21
31.4693833524054
 31
0.0
  0
LINE
  5
149
  8
0
 10
19.52254248593706
 20
31.4693833524054
 30
0.0
 11
19.72751631047062
 21
31.13489647102309
 31
0.0
  0
LINE
  5
14A
  8
0
 10
19.72751631047062
 20
31.13489647102309
 30
0.0
 11
19.87764129073758
 21
30.77246270761159
 31
0.0
  0
LINE
  5
14B
  8
0
 10
19.87764129073758
 20
30.77246270761159
 30
0.0
 11
19.96922085148755
 21
30.3910063842748
 31
0.0
  0
LINE
  5
14C
  8
0
 10
19.96922085148755
 20
30.3910063842748
 30
0.0
 11
19.99999999999969
 21
29.99992022167422
 31
0.0
  0
LINE
  5
14D
  8
0
 10
19.99999999999969
 20
29.99992022167422
 30
0.0
 11
19.96922085148755
 21
29.60883405907364
 31
0.0
  0
LINE
  5
14E
  8
0
 10
19.96922085148755
 20
29.60883405907364
 30
0.0
 11
19.87764129073758
 21
29.22737773573685
 31
0.0
  0
LINE
  5
14F
  8
0
 10
19.87764129073758
 20
29.22737773573685
 30
0.0
 11
19.72751631047062
 21
28.86494397232535
 31
0.0
  0
LINE
  5
150
  8
0
 10
19.72751631047062
 20
28.86494397232535
 30
0.0
 11
19.52254248593706
 21
28.53045709094304
 31
0.0
  0
LINE
  5
151
  8
0
 10
19.52254248593706
 20
28.53045709094304
 30
0.0
 11
19.26776695296605
 21
28.23215326870787
 31
0.0
  0
LINE
  5
152
  8
0
 10
36.24999999999923
 20
27.83485671221311
 30
0.0
 11
35.92669902237461
 21
28.05705531803175
 31
0.0
  0
LINE
  5
153
  8
0
 10
35.92669902237461
 20
28.05705531803175
 30
0.0
 11
35.64213793630572
 21
28.32709370577704
 31
0.0
  0
LINE
  5
154
  8
0
 10
35.64213793630572
 20
28.32709370577704
 30
0.0
 11
35.40332358013565
 21
28.63832263413661
 31
0.0
  0
LINE
  5
155
  8
0
 10
35.40332358013565
 20
28.63832263413661
 30
0.0
 11
35.21613635589271
 21
28.98307861398469
 31
0.0
  0
LINE
  5
156
  8
0
 10
35.21613635589271
 20
28.98307861398469
 30
0.0
 11
35.08518543427653
 21
29.35287260891787
 31
0.0
  0
LINE
  5
157
  8
0
 10
35.08518543427653
 20
29.35287260891787
 30
0.0
 11
35.01369526157853
 21
29.73859906350505
 31
0.0
  0
LINE
  5
158
  8
0
 10
35.01369526157853
 20
29.73859906350505
 30
0.0
 11
35.00342616311277
 21
30.13076011228155
 31
0.0
  0
LINE
  5
159
  8
0
 10
35.00342616311277
 20
30.13076011228155
 30
0.0
 11
35.0546309981647
 21
30.51969944871858
 31
0.0
  0
LINE
  5
15A
  8
0
 10
35.0546309981647
 20
30.51969944871858
 30
0.0
 11
35.1660489337562
 21
30.89584009553743
 31
0.0
  0
LINE
  5
15B
  8
0
 10
35.1660489337562
 20
30.89584009553743
 30
0.0
 11
35.33493649053811
 21
31.24992022167418
 31
0.0
  0
LINE
  5
15C
  8
0
 10
35.33493649053811
 20
31.24992022167418
 30
0.0
 11
35.55713509635679
 21
31.57322119929877
 31
0.0
  0
LINE
  5
15D
  8
0
 10
35.55713509635679
 20
31.57322119929877
 30
0.0
 11
35.82717348410206
 21
31.85778228536766
 31
0.0
  0
LINE
  5
15E
  8
0
 10
35.82717348410206
 20
31.85778228536766
 30
0.0
 11
36.13840241246164
 21
32.09659664153774
 31
0.0
  0
LINE
  5
15F
  8
0
 10
36.13840241246164
 20
32.09659664153774
 30
0.0
 11
36.48315839230973
 21
32.28378386578067
 31
0.0
  0
LINE
  5
160
  8
0
 10
36.48315839230973
 20
32.28378386578067
 30
0.0
 11
36.85295238724291
 21
32.41473478739685
 31
0.0
  0
LINE
  5
161
  8
0
 10
36.85295238724291
 20
32.41473478739685
 30
0.0
 11
37.23867884183008
 21
32.48622496009485
 31
0.0
  0
LINE
  5
162
  8
0
 10
37.23867884183008
 20
32.48622496009485
 30
0.0
 11
37.63083989060658
 21
32.49649405856061
 31
0.0
  0
LINE
  5
163
  8
0
 10
37.63083989060658
 20
32.49649405856061
 30
0.0
 11
38.01977922704361
 21
32.44528922350869
 31
0.0
  0
LINE
  5
164
  8
0
 10
38.01977922704361
 20
32.44528922350869
 30
0.0
 11
38.39591987386247
 21
32.33387128791718
 31
0.0
  0
LINE
  5
165
  8
0
 10
38.39591987386247
 20
32.33387128791718
 30
0.0
 11
38.74999999999922
 21
32.16498373113527
 31
0.0
  0
LINE
  5
166
  8
0
 10
38.74999999999922
 20
32.16498373113527
 30
0.0
 11
39.07330097762381
 21
31.9427851253166
 31
0.0
  0
LINE
  5
167
  8
0
 10
39.07330097762381
 20
31.9427851253166
 30
0.0
 11
39.3578620636927
 21
31.67274673757131
 31
0.0
  0
LINE
  5
168
  8
0
 10
39.3578620636927
 20
31.67274673757131
 30
0.0
 11
39.59667641986277
 21
31.36151780921173
 31
0.0
  0
LINE
  5
169
  8
0
 10
39.59667641986277
 20
31.36151780921173
 30
0.0
 11
39.78386364410571
 21
31.01676182936366
 31
0.0
  0
LINE
  5
16A
  8
0
 10
39.78386364410571
 20
31.01676182936366
 30
0.0
 11
39.91481456572188
 21
30.64696783443048
 31
0.0
  0
LINE
  5
16B
  8
0
 10
39.91481456572188
 20
30.64696783443048
 30
0.0
 11
39.98630473841989
 21
30.2612413798433
 31
0.0
  0
LINE
  5
16C
  8
0
 10
39.98630473841989
 20
30.2612413798433
 30
0.0
 11
39.99657383688565
 21
29.8690803310668
 31
0.0
  0
LINE
  5
16D
  8
0
 10
39.99657383688565
 20
29.8690803310668
 30
0.0
 11
39.94536900183373
 21
29.48014099462977
 31
0.0
  0
LINE
  5
16E
  8
0
 10
39.94536900183373
 20
29.48014099462977
 30
0.0
 11
39.83395106624222
 21
29.10400034781091
 31
0.0
  0
LINE
  5
16F
  8
0
 10
39.83395106624222
 20
29.10400034781091
 30
0.0
 11
39.6650635094603
 21
28.74992022167417
 31
0.0
  0
LINE
  5
170
  8
0
 10
39.6650635094603
 20
28.74992022167417
 30
0.0
 11
39.44286490364163
 21
28.42661924404958
 31
0.0
  0
LINE
  5
171
  8
0
 10
39.44286490364163
 20
28.42661924404958
 30
0.0
 11
39.17282651589635
 21
28.14205815798068
 31
0.0
  0
LINE
  5
172
  8
0
 10
39.17282651589635
 20
28.14205815798068
 30
0.0
 11
38.86159758753678
 21
27.90324380181061
 31
0.0
  0
LINE
  5
173
  8
0
 10
38.86159758753678
 20
27.90324380181061
 30
0.0
 11
38.5168416076887
 21
27.71605657756768
 31
0.0
  0
LINE
  5
174
  8
0
 10
38.5168416076887
 20
27.71605657756768
 30
0.0
 11
38.14704761275551
 21
27.58510565595151
 31
0.0
  0
LINE
  5
175
  8
0
 10
38.14704761275551
 20
27.58510565595151
 30
0.0
 11
37.76132115816834
 21
27.5136154832535
 31
0.0
  0
LINE
  5
176
  8
0
 10
37.76132115816834
 20
27.5136154832535
 30
0.0
 11
37.36916010939185
 21
27.50334638478773
 31
0.0
  0
LINE
  5
177
  8
0
 10
37.36916010939185
 20
27.50334638478773
 30
0.0
 11
36.9802207729548
 21
27.55455121983966
 31
0.0
  0
LINE
  5
178
  8
0
 10
36.9802207729548
 20
27.55455121983966
 30
0.0
 11
36.60408012613595
 21
27.66596915543116
 31
0.0
  0
LINE
  5
179
  8
0
 10
36.60408012613595
 20
27.66596915543116
 30
0.0
 11
36.24999999999923
 21
27.83485671221311
 31
0.0
  0
ENDSEC
  0
EOF
